<?xml version="1.0" standalone="no"?>
<!DOCTYPE svg PUBLIC "-//W3C//DTD SVG 1.1//EN" "http://www.w3.org/Graphics/SVG/1.1/DTD/svg11.dtd" >
<svg xmlns="http://www.w3.org/2000/svg" xmlns:xlink="http://www.w3.org/1999/xlink" version="1.1">
<metadata>
Created by FontForge 20190801 at Mon Jan 17 19:16:12 2022
 By Unknown
Prototype(c)
</metadata>
<defs>
<font id="HarperBold" horiz-adv-x="812" >
  <font-face 
    font-family="Harper"
    font-weight="700"
    font-stretch="normal"
    units-per-em="1000"
    panose-1="0 0 0 0 0 0 0 0 0 0"
    ascent="800"
    descent="-200"
    x-height="488"
    cap-height="698"
    bbox="-129 -278 1172 947"
    underline-thickness="0"
    underline-position="0"
    unicode-range="U+000A-2122"
  />
<missing-glyph horiz-adv-x="527" 
d="M50 700h427v-700h-427v700zM78 680l185 -309l186 309h-371zM251 350l-180 300v-601zM264 329l-185 -308h370zM276 350l181 -303v605z" />
    <glyph glyph-name=".notdef" horiz-adv-x="527" 
d="M50 700h427v-700h-427v700zM78 680l185 -309l186 309h-371zM251 350l-180 300v-601zM264 329l-185 -308h370zM276 350l181 -303v605z" />
    <glyph glyph-name=".null" horiz-adv-x="0" 
 />
    <glyph glyph-name=".null" horiz-adv-x="0" 
 />
    <glyph glyph-name="nonmarkingreturn" horiz-adv-x="333" 
 />
    <glyph glyph-name="controlLF" unicode="&#xa;" horiz-adv-x="0" 
 />
    <glyph glyph-name="controlCR" unicode="&#xd;" horiz-adv-x="0" 
 />
    <glyph glyph-name="space" unicode=" " horiz-adv-x="336" 
 />
    <glyph glyph-name="exclam" unicode="!" horiz-adv-x="272" 
d="M28 110.5q0 44.5 31 76t76.5 31.5t77 -31.5t31.5 -75.5t-31.5 -75.5t-77 -31.5t-76.5 31t-31 75.5zM37 593q0 96 -5 153h200q-4 -49 -4 -153v-183q0 -77 3 -115h-198q4 51 4 115v183z" />
    <glyph glyph-name="quotedbl" unicode="&#x22;" horiz-adv-x="477" 
d="M28 746h183l-30 -304h-125zM265 746h184l-31 -304h-125z" />
    <glyph glyph-name="quotedbl" unicode="&#x201d;" horiz-adv-x="477" 
d="M28 746h183l-30 -304h-125zM265 746h184l-31 -304h-125z" />
    <glyph glyph-name="quotedbl" unicode="&#x201c;" horiz-adv-x="477" 
d="M28 746h183l-30 -304h-125zM265 746h184l-31 -304h-125z" />
    <glyph glyph-name="numbersign" unicode="#" horiz-adv-x="602" 
d="M77 22l30 161h-79v125h101l22 96h-86v122h104l28 152h120l-29 -152h88l29 152h121l-29 -152h77v-122h-96l-20 -96h80v-125h-101l-32 -161h-121l33 161h-88l-32 -161h-120zM250 308h87l19 96h-87z" />
    <glyph glyph-name="dollar" unicode="$" horiz-adv-x="465" 
d="M253 492q0 -14 13.5 -28.5t34 -27t44.5 -31.5t44.5 -40.5t34 -55t13.5 -73.5q0 -69 -38.5 -115t-107.5 -66v-76h-120v62q-34 1 -79 7.5t-64 7.5v189q28 -30 71 -49.5t79 -19.5q50 0 50 37q0 15 -13.5 30t-33 27t-43 30t-43 39t-33 54.5t-13.5 75.5q0 63 32 107.5t92 64.5
l-2 82h120v-67q21 -1 59 -6.5t60 -5.5v-173q-46 52 -117 52q-40 0 -40 -31z" />
    <glyph glyph-name="percent" unicode="%" horiz-adv-x="891" 
d="M215 717q77 0 129.5 -52t52.5 -125q0 -80 -54 -135t-133 -55q-77 0 -129.5 53t-52.5 129.5t53.5 130.5t132.5 54h1zM257 13h-151l528 694h152zM213 588q-22 0 -37.5 -15t-15.5 -36q0 -24 15 -40.5t37 -16.5t37.5 17t15.5 41q0 21 -15 35.5t-36 14.5h-1zM681 367h1
q76 0 128.5 -51t52.5 -124q0 -78 -54 -132.5t-131 -54.5q-78 0 -130.5 52t-52.5 127.5t54 129t132 53.5zM680 240q-22 0 -37 -15t-15 -36q0 -24 15 -41t36 -17t36 17.5t15 41.5q0 21 -14.5 35.5t-34.5 14.5h-1z" />
    <glyph glyph-name="ampersand" unicode="&#x26;" horiz-adv-x="759" 
d="M731 402q-83 -84 -171 -196q57 -48 110 -55v-148q-79 -2 -131 14.5t-99 54.5q-74 -69 -187 -69q-109 0 -167 59t-58 144q0 98 129 174q-56 52 -56 134q0 70 56.5 120t136.5 50q74 0 128.5 -45.5t54.5 -121.5q0 -41 -18 -73t-61 -69q37 -35 64 -67q7 9 31.5 42t42.5 52
h195zM274 154q38 0 71 31q-49 65 -96 106q-43 -35 -43 -68q0 -27 21 -48t47 -21zM250 516q0 -13 11 -27.5t19 -21t15 -10.5q21 11 34 27.5t13 33.5t-13 29.5t-31 12.5q-20 0 -34 -13.5t-14 -30.5z" />
    <glyph glyph-name="quotesingle" unicode="'" horiz-adv-x="239" 
d="M28 746h183l-30 -304h-125z" />
    <glyph glyph-name="quotesingle" unicode="&#x2019;" horiz-adv-x="239" 
d="M28 746h183l-30 -304h-125z" />
    <glyph glyph-name="quotesingle" unicode="&#x2018;" horiz-adv-x="239" 
d="M28 746h183l-30 -304h-125z" />
    <glyph glyph-name="parenleft" unicode="(" horiz-adv-x="405" 
d="M377 -15v-168q-112 36 -192 112t-118.5 169.5t-38.5 195.5q0 170 96 299.5t253 177.5v-170q-80 -43 -129.5 -121.5t-49.5 -179.5t49 -186t130 -129z" />
    <glyph glyph-name="parenright" unicode=")" horiz-adv-x="405" 
d="M28 602v169q112 -36 192 -112t118.5 -169.5t38.5 -196.5q0 -170 -95.5 -299.5t-253.5 -176.5v169q80 43 129.5 122t49.5 179q0 101 -49 186t-130 129z" />
    <glyph glyph-name="asterisk" unicode="*" horiz-adv-x="518" 
d="M28 595q37 -12 90 -19l60 -8l-38 47q-51 64 -60 66l131 78q-1 -18 27 -91l21 -54l20 54q28 61 28 90l133 -77q-16 -7 -62 -66l-38 -47l58 8q61 7 92 20v-152q-13 7 -92 22l-58 8l38 -48q29 -39 62 -69l-132 -74q0 17 -29 89l-20 55l-21 -54q-28 -72 -28 -90l-132 76
q8 4 27 24t37 44l36 47l-60 -8q-47 -9 -90 -23v152z" />
    <glyph glyph-name="plus" unicode="+" horiz-adv-x="532" 
d="M346 517v-160h158v-145h-158v-158h-161v158h-157v145h157v160h161z" />
    <glyph glyph-name="comma" unicode="," horiz-adv-x="290" 
d="M78 220h184q0 -111 -20 -203q-17 -74 -77 -122t-137 -48q24 61 37 145t13 228z" />
    <glyph glyph-name="hyphen" unicode="-" horiz-adv-x="379" 
d="M28 345h323v-172h-323v172z" />
    <glyph glyph-name="period" unicode="." horiz-adv-x="293" 
d="M28 116q0 50 34.5 85.5t84.5 35.5q48 0 83 -36t35 -85q0 -51 -35 -87t-83 -36q-50 0 -84.5 36t-34.5 87z" />
    <glyph glyph-name="slash" unicode="/" horiz-adv-x="437" 
d="M196 -25h-168l214 750h167z" />
    <glyph glyph-name="zero" unicode="0" horiz-adv-x="588" 
d="M28 343q0 96 29 172.5t90.5 124t147 47.5t146.5 -47.5t90 -124t29 -172.5t-29 -173t-90 -125t-146.5 -48t-147 48t-90.5 125t-29 173zM223 343q0 -194 71 -194t71 194q0 192 -71 192t-71 -192z" />
    <glyph glyph-name="one" unicode="1" horiz-adv-x="389" 
d="M358 561v-451q0 -44 -30.5 -75t-73.5 -31h-97q3 69 3 107v368q-94 -36 -132 -53v159q46 17 124.5 51t117.5 54h91q-3 -24 -3 -129z" />
    <glyph glyph-name="two" unicode="2" horiz-adv-x="520" 
d="M28 97q108 100 185 216q44 70 44 111q0 42 -26 66.5t-66 24.5q-75 0 -123 -66v214q14 2 75 15t107 13q113 0 177.5 -63.5t63.5 -168.5q-1 -45 -20.5 -90.5t-63.5 -106.5q-27 -37 -76 -86q1 -1 58 -1q67 0 129 6v-9q0 -69 -49.5 -118.5t-118.5 -49.5h-2h-294v93z" />
    <glyph glyph-name="three" unicode="3" horiz-adv-x="475" 
d="M161 524q-32 0 -66.5 -11t-57.5 -29v176q10 1 37 8.5t60.5 13t67.5 5.5q104 0 165 -48.5t61 -131.5q0 -108 -113 -149q132 -44 132 -163q0 -95 -66 -148.5t-179 -53.5q-31 0 -67 6.5t-66.5 14.5t-40.5 9v182q20 -21 58 -35t75 -14q84 0 84 65q0 27 -19 42t-51 15
q-21 0 -34 -4v151q12 -3 32 -3q27 0 42.5 12.5t15.5 36.5q0 25 -18 39t-52 14z" />
    <glyph glyph-name="four" unicode="4" horiz-adv-x="621" 
d="M28 235l391 461h65q-2 -26 -2 -120v-291q78 0 111 3v-23q0 -45 -32 -77.5t-78 -32.5h-1v-75q0 -31 -22 -53.5t-54 -22.5h-114q4 26 4 77v74h-127q-80 0 -141 -3v83zM296 409l-100 -124h100v124z" />
    <glyph glyph-name="five" unicode="5" horiz-adv-x="498" 
d="M210 -11q-45 0 -110 15t-72 15v187q20 -20 60 -36t76 -16q44 0 69 17.5t25 51.5q0 33 -29.5 51t-75.5 18q-73 0 -114 -21q11 51 32 144t31 144q14 76 18 124q18 -3 66 -3h154q66 0 90 4v-173q-38 3 -76 3h-104l-16 -72q5 1 26 1q88 0 149 -58.5t61 -158.5t-75.5 -168.5
t-184.5 -68.5z" />
    <glyph glyph-name="six" unicode="6" horiz-adv-x="577" 
d="M389 574q-15 -17 -94 -120q18 5 45 5q90 0 149.5 -67t59.5 -164q0 -96 -77 -164t-187 -68q-106 0 -181.5 72t-75.5 173q0 78 32.5 144.5t127.5 193.5q54 70 69 101h225q-19 -19 -93 -106zM221 232q0 -29 20.5 -50t48.5 -21t47 20t19 47q0 28 -20 48.5t-48 20.5t-47.5 -19
t-19.5 -46z" />
    <glyph glyph-name="seven" unicode="7" horiz-adv-x="576" 
d="M124 505q-60 0 -96 -4v182q32 -3 96 -3h327q74 0 97 2l-43 -88q-111 -239 -219 -498q-4 -11 -13 -32t-15 -36t-9 -24h-203q19 29 57 106q84 171 182 395h-161z" />
    <glyph glyph-name="eight" unicode="8" horiz-adv-x="547" 
d="M50 501q0 79 63 132.5t161 53.5t160.5 -53.5t62.5 -132.5q0 -48 -25 -84.5t-64 -56.5q50 -21 80.5 -61t30.5 -98q0 -87 -66 -145t-178.5 -58t-179.5 60t-67 150q0 52 29 91t79 61q-40 19 -63 55.5t-23 85.5zM213 222q0 -25 18 -43.5t43 -18.5q26 0 44 18.5t18 43.5
t-18 42.5t-44 17.5q-25 0 -43 -17.5t-18 -42.5zM225 481.5q0 -19.5 14.5 -33.5t35 -14t35 14t14.5 33.5t-14.5 34t-35 14.5t-35 -14.5t-14.5 -34z" />
    <glyph glyph-name="nine" unicode="9" horiz-adv-x="574" 
d="M100 4q44 48 74 86q59 73 101 139q-4 -2 -20 -2q-97 0 -162 64.5t-65 160.5q0 99 76 167t184 68q107 0 182.5 -72t75.5 -174q0 -41 -8 -76.5t-29.5 -76t-40.5 -69t-59 -85.5q-9 -13 -30.5 -42.5t-38 -53t-22.5 -34.5h-218zM354 451q0 30 -19 51t-47 21t-48.5 -20
t-20.5 -49q0 -28 20.5 -48.5t48.5 -20.5t47 19.5t19 46.5z" />
    <glyph glyph-name="colon" unicode=":" horiz-adv-x="277" 
d="M28 384q0 47 32 80t77 33q47 0 79.5 -33t32.5 -80t-32.5 -80t-79.5 -33q-45 0 -77 33t-32 80zM28 104q0 46 32 79t77 33q47 0 79.5 -33t32.5 -79q0 -47 -32.5 -80.5t-79.5 -33.5q-45 0 -77 33.5t-32 80.5z" />
    <glyph glyph-name="semicolon" unicode=";" horiz-adv-x="303" 
d="M257 202q0 -119 -22 -210q-15 -64 -67.5 -104.5t-118.5 -40.5h-21q23 57 34 137t11 218h184zM54 384q0 47 32.5 80t78.5 33q45 0 77.5 -33t32.5 -80t-32 -80t-78 -33t-78.5 33t-32.5 80z" />
    <glyph glyph-name="less" unicode="&#x3c;" horiz-adv-x="538" 
d="M510 0l-482 260v47l482 261v-174l-245 -112l245 -108v-174z" />
    <glyph glyph-name="equal" unicode="=" horiz-adv-x="532" 
d="M504 330h-476v145h476v-145zM504 90h-476v144h476v-144z" />
    <glyph glyph-name="greater" unicode="&#x3e;" horiz-adv-x="481" 
d="M28 577l425 -260v-48l-425 -260v174l197 110l-197 110v174z" />
    <glyph glyph-name="question" unicode="?" horiz-adv-x="417" 
d="M114 544q-23 0 -48 -7t-38 -18v173q3 0 51 9t90 9q105 0 162.5 -50t57.5 -138q0 -58 -31.5 -111.5t-90.5 -88.5q7 -36 17 -71h-187q-1 9 -26 125q58 34 85.5 59.5t27.5 54.5q0 21 -18 37.5t-52 16.5zM90 109q0 44 31 74.5t75.5 30.5t76 -30.5t31.5 -74.5q0 -43 -32 -74.5
t-76 -31.5t-75 31t-31 75z" />
    <glyph glyph-name="at" unicode="@" horiz-adv-x="922" 
d="M166 255q0 -130 81 -216t211 -86q87 0 132 29l-7 -134q-6 -1 -48 -5t-77 -4q-93 0 -173.5 32.5t-136.5 88t-88 132t-32 163.5q0 116 57.5 213.5t159 154t223.5 56.5q196 0 311 -98t115 -255q0 -124 -62.5 -200t-170.5 -76q-59 0 -96.5 22t-47.5 59q-45 -70 -119 -70
q-58 0 -97 47t-39 115q0 94 55 162.5t130 68.5q64 0 92 -39q3 18 3 29h133l-36 -212q-5 -29 3 -47t27 -18q87 0 87 144q0 117 -74.5 186t-213.5 69q-85 0 -154.5 -42t-108.5 -113.5t-39 -155.5zM515 267q0 21 -11.5 36.5t-27.5 15.5q-25 0 -43 -20.5t-18 -49.5
q0 -21 13.5 -36t32.5 -15q22 0 38 20t16 49z" />
    <glyph glyph-name="A" unicode="A" 
d="M556 3q-5 16 -25 64l-21 47h-242l-31 -67q-13 -29 -16 -44h-193q46 77 82 154l261 553h54l273 -553q27 -57 86 -154h-228zM446 264l-59 143l-58 -143h117z" />
    <glyph glyph-name="B" unicode="B" horiz-adv-x="591" 
d="M28 3q5 52 5 182v297q0 175 -4 216h251q69 0 119 -15.5t76.5 -42t38.5 -54.5t12 -60q0 -93 -83 -133q21 -9 40 -23t38 -34t30.5 -50t11.5 -64q0 -43 -17 -81.5t-50 -69.5t-88.5 -49.5t-127.5 -18.5h-252zM231 572v-139h30q33 0 53.5 17.5t20.5 51.5q0 29 -21 49.5
t-52 20.5h-31zM363 220q0 36 -25 60t-66 24h-41v-170h36q96 0 96 86z" />
    <glyph glyph-name="C" unicode="C" horiz-adv-x="601" 
d="M226 352q0 -79 54 -134t135 -55q98 0 158 58v-212q-18 -1 -70.5 -9.5t-105.5 -8.5q-108 0 -193 48.5t-130.5 130.5t-45.5 182q0 99 45.5 181t130.5 130.5t193 48.5q51 0 99.5 -7.5t68.5 -7.5v-220q-61 62 -152 62q-80 0 -133.5 -54t-53.5 -133z" />
    <glyph glyph-name="D" unicode="D" horiz-adv-x="684" 
d="M308 3h-280q5 54 5 182v331q0 132 -5 182h280q94 0 174.5 -46.5t127 -126.5t46.5 -174t-46.5 -174t-127 -127t-174.5 -47zM232 166h59q70 0 119 54.5t49 130.5q0 75 -49 130t-119 55h-59v-370z" />
    <glyph glyph-name="E" unicode="E" horiz-adv-x="497" 
d="M284 534h-53v-94h40q114 0 176 4v-171q-62 4 -176 4h-40v-109h61q117 0 177 4v-173q-65 4 -177 4h-264q4 112 4 182v332q0 120 -4 181h256q81 0 177 6v-174q-42 4 -177 4z" />
    <glyph glyph-name="F" unicode="F" horiz-adv-x="489" 
d="M28 4q4 61 4 181v331q0 121 -4 182h256q113 0 177 4v-172q-42 4 -177 4h-53v-124h35q106 0 165 4v-167h-200v-62q0 -119 4 -181h-207z" />
    <glyph glyph-name="G" unicode="G" horiz-adv-x="640" 
d="M608 23q-4 -1 -18 -6t-17.5 -6t-16 -5t-18 -5t-18.5 -3.5t-22.5 -3t-24 -2t-30.5 -2t-35 -0.5q-85 0 -157 28.5t-120.5 77.5t-75.5 114.5t-27 140.5q0 100 45 181.5t131.5 130.5t199.5 49q43 0 77.5 -3.5t49 -6t50.5 -11.5v-214q-64 66 -169 66q-83 0 -134 -55t-51 -137
q0 -80 53.5 -136.5t128.5 -56.5q9 0 12 3v32q0 73 -4 134h195q-4 -40 -4 -142v-162z" />
    <glyph glyph-name="H" unicode="H" horiz-adv-x="688" 
d="M230 516v-68h228v68q0 112 -5 182h207q-5 -114 -5 -182v-367q0 -76 5 -146h-207q5 48 5 147v134h-228v-135q0 -90 4 -145h-206q4 56 4 146v366q0 127 -4 182h206q-4 -56 -4 -182z" />
    <glyph glyph-name="I" unicode="I" horiz-adv-x="262" 
d="M230 516v-331q0 -120 4 -182h-206q4 63 4 182v331q0 121 -4 182h206q-4 -62 -4 -182z" />
    <glyph glyph-name="J" unicode="J" horiz-adv-x="299" 
d="M266 -15q0 -116 -77.5 -189.5t-193.5 -73.5q-46 0 -123 13v199q34 -46 108 -46q39 0 63.5 30.5t24.5 76.5v521q0 121 -4 182h206q-4 -62 -4 -182v-531z" />
    <glyph glyph-name="K" unicode="K" horiz-adv-x="736" 
d="M231 384l126 190q50 76 74 124h220q-40 -52 -90 -126l-138 -201l163 -219q31 -41 122 -148h-268q-22 45 -63 100l-146 201v-120q0 -119 4 -181h-207q4 62 4 181v331q0 121 -4 182h207q-4 -61 -4 -182v-132z" />
    <glyph glyph-name="L" unicode="L" horiz-adv-x="525" 
d="M231 516v-345h86q131 0 180 3v-175q-67 4 -180 4h-289q4 112 4 182v331q0 121 -4 182h207q-4 -61 -4 -182z" />
    <glyph glyph-name="M" unicode="M" horiz-adv-x="911" 
d="M762 710l82 -524q16 -110 39 -183h-220q0 22 -6.5 65.5t-17.5 105.5t-16 102l-167 -284h-36l-166 286q-45 -223 -46 -275h-180q4 17 38.5 193.5t66.5 344.5l32 169h49l245 -429l251 429h52z" />
    <glyph glyph-name="N" unicode="N" horiz-adv-x="665" 
d="M221 149q1 -90 5 -146h-198q4 57 4 147v359q0 92 -4 202h42q68 -68 116 -109l257 -221v135q0 96 -4 182h198q-5 -114 -5 -182v-361q0 -91 5 -164h-39q-74 76 -100 99l-277 237v-178z" />
    <glyph glyph-name="O" unicode="O" horiz-adv-x="757" 
d="M378 711q107 0 194 -48.5t136 -131t49 -180.5q0 -99 -49 -181.5t-136 -131t-194 -48.5q-106 0 -193 48.5t-136 131t-49 181.5q0 98 49 180.5t136 131t193 48.5zM448 139q68 22 96 100t-1 165.5t-97.5 134t-136.5 24t-96 -100.5t1 -165.5t97.5 -133.5t136.5 -24z" />
    <glyph glyph-name="P" unicode="P" horiz-adv-x="585" 
d="M231 185q0 -128 5 -182h-208q5 54 5 182v331q0 132 -5 182h266q124 0 193.5 -65t69.5 -170q0 -107 -68 -169t-195 -62h-63v-47zM231 549v-168h39q42 0 65.5 25.5t23.5 58.5q0 31 -23.5 57.5t-65.5 26.5h-39z" />
    <glyph glyph-name="Q" unicode="Q" horiz-adv-x="813" 
d="M35 437q19 97 82.5 168.5t158 102.5t198.5 11q106 -20 182.5 -84.5t109 -154.5t13.5 -188q-17 -88 -70 -152.5t-117 -96.5q24 -32 50 -55q68 -59 142 -73q45 -9 81 -7l-27 -141q-61 -6 -131 8q-71 14 -131.5 51t-104.5 88q-36 41 -67 90q-24 -3 -67 6q-104 20 -180.5 84
t-108.5 155t-13 188zM231 399q-15 -78 25.5 -143.5t112.5 -79.5q73 -14 136 31t78 123q15 79 -26 144.5t-115 79.5q-72 14 -134 -31t-77 -124z" />
    <glyph glyph-name="R" unicode="R" horiz-adv-x="653" 
d="M231 186q0 -129 5 -183h-208q5 54 5 183v330q0 132 -5 182h257q130 0 202 -63.5t72 -164.5q0 -145 -137 -191q30 -32 111 -130t133 -146h-256q-33 39 -84.5 118t-69.5 129q-4 -1 -9 -1h-16v-63zM231 542v-152h48q37 0 59.5 21t22.5 53t-22.5 55t-62.5 23h-45z" />
    <glyph glyph-name="S" unicode="S" horiz-adv-x="505" 
d="M262 520q0 -17 16 -35t40 -33t51.5 -37.5t51.5 -47.5t40 -65t16 -87q0 -103 -76 -165.5t-193 -62.5q-45 0 -122 11q-25 4 -41.5 23t-16.5 44v153q28 -33 82 -55t99 -22q28 0 42.5 12.5t14.5 33.5q0 19 -15.5 38t-38.5 34t-50 37t-50 45.5t-38.5 62t-15.5 85.5
q0 104 67.5 164t189.5 60q29 0 79 -9q26 -4 42.5 -23.5t16.5 -44.5v-134q-24 29 -62 45t-75 16q-54 0 -54 -43z" />
    <glyph glyph-name="T" unicode="T" horiz-adv-x="673" 
d="M461 698q119 0 184 4v-173q-77 5 -184 5h-24q-1 -37 -1 -129v-220q0 -130 5 -182h-209q5 80 5 182v220q0 74 -3 129h-24q-111 0 -182 -5v173q65 -4 182 -4h251z" />
    <glyph glyph-name="U" unicode="U" horiz-adv-x="658" 
d="M28 698h208q-5 -70 -5 -182v-238q0 -55 28.5 -84.5t69.5 -29.5t70 29.5t29 84.5v238q0 97 -4 182h206q-3 -67 -3 -182v-233q0 -134 -85 -212.5t-213 -78.5q-129 0 -213 78t-84 213v233q0 127 -4 182z" />
    <glyph glyph-name="V" unicode="V" horiz-adv-x="787" 
d="M292 588l110 -236l107 235q38 86 46 111h204q-36 -59 -82 -153l-268 -555h-30l-269 555q-51 106 -82 153h222q13 -50 42 -110z" />
    <glyph glyph-name="W" unicode="W" horiz-adv-x="1149" 
d="M561 615l36 -62l20 40q33 67 48 105h186q-51 -86 -91 -158l-75 -136l51 -95l150 293q32 64 44 96h199q-8 -15 -30.5 -53.5t-37.5 -67.5l-320 -583h-15l-137 242l-133 -242h-26l-310 537q-77 133 -100 167h222q19 -48 50 -102l170 -300l40 80l-110 195q-34 59 -80 127h206
q17 -37 43 -83z" />
    <glyph glyph-name="X" unicode="X" horiz-adv-x="745" 
d="M432 82l-71 119l-75 -130q-6 -12 -12.5 -24t-10 -17.5t-6.5 -11t-4 -9t-1 -6.5h-224q36 42 117 162l119 189l-118 186q-72 112 -109 158h237q19 -38 45 -83l54 -96l57 100q29 51 42 79h219q-43 -53 -107 -149l-115 -180l123 -188q78 -122 125 -178h-242q-9 24 -43 79z
" />
    <glyph glyph-name="Y" unicode="Y" horiz-adv-x="771" 
d="M284 3q3 92 3 151v150l-167 264q-54 83 -92 130h239q17 -40 39 -76l88 -148l86 144q21 35 42 79h221q-32 -41 -103 -150l-155 -241v-152q0 -88 4 -151h-205z" />
    <glyph glyph-name="Y" unicode="&#x178;" horiz-adv-x="771" 
d="M284 3q3 92 3 151v150l-167 264q-54 83 -92 130h239q17 -40 39 -76l88 -148l86 144q21 35 42 79h221q-32 -41 -103 -150l-155 -241v-152q0 -88 4 -151h-205z" />
    <glyph glyph-name="Y" unicode="&#xdd;" horiz-adv-x="771" 
d="M284 3q3 92 3 151v150l-167 264q-54 83 -92 130h239q17 -40 39 -76l88 -148l86 144q21 35 42 79h221q-32 -41 -103 -150l-155 -241v-152q0 -88 4 -151h-205z" />
    <glyph glyph-name="Z" unicode="Z" horiz-adv-x="604" 
d="M501 545l-179 -377h86q108 0 167 4v-169h-547q30 52 78 154l174 378h-73q-124 0 -167 -5v172q67 -4 167 -4h369q-35 -68 -75 -153z" />
    <glyph glyph-name="bracketleft" unicode="[" horiz-adv-x="345" 
d="M28 3q3 33 3 106v714q0 72 -3 107h205q47 0 84 3v-112q-33 3 -85 3h-86v-716h87q48 0 84 3v-111q-33 3 -85 3h-204z" />
    <glyph glyph-name="backslash" unicode="\" horiz-adv-x="437" 
d="M409 -25h-168l-213 750h167z" />
    <glyph glyph-name="bracketright" unicode="]" horiz-adv-x="345" 
d="M314 -34q0 -71 3 -105h-204q-52 0 -85 -3v111q36 -3 84 -3h87v716h-86q-50 0 -85 -3v112q37 -3 84 -3h205q-3 -35 -3 -107v-715z" />
    <glyph glyph-name="asciicircum" unicode="^" horiz-adv-x="527" 
d="M360 523l-101 131l-98 -131h-133l224 254h23l224 -254h-139z" />
    <glyph glyph-name="grave" unicode="`" horiz-adv-x="315" 
d="M28 741h141l118 -165h-122z" />
    <glyph glyph-name="a" unicode="a" horiz-adv-x="505" 
d="M477 135q19 0 27 5v-30q0 -49 -34 -83t-82 -34q-68 0 -102 49q-45 -49 -116 -49q-69 0 -111.5 41t-42.5 109q0 66 43.5 111t117.5 45q60 0 90 -20v20q0 31 -22.5 47.5t-63.5 16.5q-74 0 -123 -47v147q37 19 73 27t105 8q108 0 161.5 -58.5t53.5 -162.5v-105q0 -37 26 -37
zM266 130q11 19 -0.5 36.5t-32.5 17.5q-16 0 -27.5 -10.5t-11.5 -24.5q0 -17 12 -28t29 -10q20 1 31 19z" />
    <glyph glyph-name="a" unicode="&#xe5;" horiz-adv-x="505" 
d="M477 135q19 0 27 5v-30q0 -49 -34 -83t-82 -34q-68 0 -102 49q-45 -49 -116 -49q-69 0 -111.5 41t-42.5 109q0 66 43.5 111t117.5 45q60 0 90 -20v20q0 31 -22.5 47.5t-63.5 16.5q-74 0 -123 -47v147q37 19 73 27t105 8q108 0 161.5 -58.5t53.5 -162.5v-105q0 -37 26 -37
zM266 130q11 19 -0.5 36.5t-32.5 17.5q-16 0 -27.5 -10.5t-11.5 -24.5q0 -17 12 -28t29 -10q20 1 31 19z" />
    <glyph glyph-name="b" unicode="b" horiz-adv-x="611" 
d="M374 498q105 0 168.5 -69.5t63.5 -174.5q0 -114 -70.5 -185t-180.5 -71q-32 0 -63.5 9.5t-47.5 24.5v-27h-192q4 40 4 101v537h-53q28 64 36 106h209q-4 -34 -4 -101v-192q41 42 130 42zM329 154q35 0 59.5 27.5t24.5 66.5t-25 66.5t-62 27.5q-35 0 -60.5 -27.5
t-25.5 -66.5t26.5 -66.5t62.5 -27.5z" />
    <glyph glyph-name="c" unicode="c" horiz-adv-x="422" 
d="M296 158q59 0 98 47v-195q0 -2 -2 -2q-2 -1 -36 -5.5t-64 -4.5q-120 0 -196 71.5t-76 176.5q0 107 76.5 179.5t195.5 72.5q19 0 53.5 -5t44.5 -6v-194q-19 21 -40 32t-54 11q-39 0 -66 -26.5t-27 -63.5q0 -36 27 -62t66 -26z" />
    <glyph glyph-name="d" unicode="d" horiz-adv-x="610" 
d="M578 635v-528q0 -59 4 -102h-193q1 15 1 45q-50 -52 -140 -52q-97 0 -159.5 72.5t-62.5 173.5q0 110 65.5 182.5t172.5 72.5q43 0 76 -10.5t48 -26.5v182h-53q21 41 37 105h208q-4 -49 -4 -114zM309 153q34 0 59 27.5t25 66.5t-26 67t-63 28q-36 0 -60.5 -28t-24.5 -67
t26 -66.5t64 -27.5z" />
    <glyph glyph-name="e" unicode="e" horiz-adv-x="507" 
d="M491 245q0 -21 -2 -38h-297q7 -37 41.5 -52.5t82.5 -14.5q38 0 75 9t55 18l19 9q19 -76 -36.5 -127.5t-146.5 -51.5q-113 0 -190 71.5t-77 176.5t69 178.5t170 73.5q102 0 169.5 -73t67.5 -179zM186 303h120q-3 23 -17.5 42t-40.5 19q-22 0 -39 -17.5t-23 -43.5z" />
    <glyph glyph-name="f" unicode="f" horiz-adv-x="400" 
d="M366 603q-34 0 -54 -23t-20 -68v-24h112v-42q0 -47 -33 -80t-79 -33v-228q0 -27 -9 -45.5t-23.5 -29t-40.5 -16.5t-52 -7.5t-67 -1.5q3 70 3 101v227h-88v155h88v17q0 123 58.5 186.5t158.5 63.5q30 0 62 -5q26 -3 43 -22.5t17 -44.5v-107q-21 16 -36 21.5t-40 5.5z" />
    <glyph glyph-name="g" unicode="g" horiz-adv-x="505" 
d="M225 86q76 0 135.5 -19t97 -60t37.5 -99q0 -72 -80 -121t-191 -49q-105 0 -180 47.5t-75 112.5q0 74 58 108q-18 10 -30.5 29t-12.5 44q0 38 25 66t61 31q-68 52 -68 131t65.5 135t165.5 56q66 0 118 -25q3 6 3 15h150q0 -31 -16.5 -60.5t-42.5 -41.5q20 -29 20 -77
q0 -77 -67 -132t-165 -55q-11 0 -30.5 1t-23.5 1q-21 0 -21 -20q0 -19 32 -19q4 0 16.5 0.5t18.5 0.5zM229 -146q36 0 62.5 13t26.5 32q0 23 -26 36.5t-69 13.5q-41 0 -64.5 -13t-23.5 -34q0 -19 28 -33.5t66 -14.5zM234 361q-25 -1 -42 -16.5t-17 -37.5t17 -37t42 -15
q22 0 38.5 15.5t16.5 36.5q0 22 -16.5 38t-38.5 16z" />
    <glyph glyph-name="h" unicode="h" horiz-adv-x="574" 
d="M384 497q87 0 130.5 -60t43.5 -165v-167q0 -41 -29.5 -70.5t-70.5 -29.5h-92q4 41 4 101v171q0 34 -15 52t-41 18q-58 0 -58 -74v-168q0 -41 -29 -70.5t-71 -29.5h-92q4 42 4 101v537h-53q8 16 20.5 52.5t16.5 53.5h209q-5 -40 -5 -101v-202q49 51 128 51z" />
    <glyph glyph-name="i" unicode="i" horiz-adv-x="285" 
d="M255 488l-4 -382v-1q0 -42 -29 -71t-70 -29h-93q4 43 4 101v276h-53q24 44 37 106h208zM157 535q-42 0 -71 29.5t-29 71.5q0 43 29 72.5t71 29.5t70.5 -29.5t28.5 -72.5q0 -42 -28.5 -71.5t-70.5 -29.5z" />
    <glyph glyph-name="j" unicode="j" horiz-adv-x="270" 
d="M-5 382q24 57 37 106h207l-3 -469q0 -68 -16.5 -120.5t-45 -83.5t-63 -46.5t-72.5 -15.5h-3q-48 0 -82 34.5t-34 82.5v55q16 -13 54 -13q74 0 74 116v354h-53zM143 535q-44 0 -74.5 32.5t-26.5 77.5q2 33 24 58t53 33q49 11 85.5 -20t36.5 -79q0 -43 -28.5 -72.5
t-69.5 -29.5z" />
    <glyph glyph-name="k" unicode="k" horiz-adv-x="561" 
d="M400 272q67 -89 107.5 -141.5t56.5 -71.5t48 -54h-231q-10 16 -144 193v-92q0 -42 -29.5 -71.5t-71.5 -29.5h-91q4 29 4 101v537h-53q25 60 36 106h209l-4 -451q98 149 120 190h192q-35 -45 -149 -216z" />
    <glyph glyph-name="l" unicode="l" horiz-adv-x="273" 
d="M243 749q1 0 1 -2q-4 -30 -4 -99v-542q0 -42 -29.5 -71.5t-71.5 -29.5h-90q-1 0 -1 1q4 30 4 100v536q0 1 -1 1h-50q-2 0 -1 2q24 53 36 103q0 1 1 1h206z" />
    <glyph glyph-name="m" unicode="m" horiz-adv-x="854" 
d="M826 292v-98v-98q0 -38 -26.5 -64.5t-64.5 -26.5h-102q5 70 5 101v158q0 84 -52 84q-26 0 -41 -19.5t-15 -59.5v-164q0 -42 -29 -71t-71 -29h-92q4 51 4 101v167q0 36 -14 55.5t-38 19.5q-28 0 -42 -20t-14 -56v-166v-17q1 -35 -23.5 -59.5t-59.5 -24.5h-107q2 46 2 101
v276h-53q25 55 36 106h206v-58q51 67 141 67q91 0 126 -68q52 68 145 68q79 0 129 -53.5t50 -151.5z" />
    <glyph glyph-name="n" unicode="n" horiz-adv-x="568" 
d="M367 497q173 0 173 -229v-163q0 -41 -29.5 -70.5t-70.5 -29.5h-92q-1 0 -1 1q4 38 4 100v162q0 37 -14 58.5t-42 21.5q-56 0 -56 -79v-163q0 -42 -30 -71.5t-72 -29.5h-89q-1 0 -1 1q3 44 3 100v275q0 1 -1 1h-50q-1 0 -1 1q24 55 37 105h1h202q1 0 1 -1v-46q0 -1 0.5 -1
h0.5q45 57 127 57z" />
    <glyph glyph-name="o" unicode="o" horiz-adv-x="564" 
d="M274.5 498q107.5 0 184.5 -73.5t77 -177.5q0 -103 -77 -176t-185 -73t-184 73t-76 176q0 104 76.5 177.5t184 73.5zM303 143.5q31 8.5 44.5 45t2 80t-42 68t-61.5 16t-44.5 -45t-1.5 -80t42 -68t61 -16z" />
    <glyph glyph-name="p" unicode="p" horiz-adv-x="626" 
d="M381 498q97 0 160.5 -71t63.5 -172q0 -109 -67.5 -183.5t-168.5 -74.5q-85 0 -124 28q-1 1 -1 -1v-162q0 -42 -30 -72t-72 -30h-89q-1 0 -1 2q3 43 3 100v521q0 1 -1 1h-50q-2 0 -1 1q23 53 37 102q0 1 1 1h201q2 0 2 -1v-43q0 -1 0.5 -1h1.5q60 55 135 55zM329 153
q34 0 59 27.5t25 66.5t-24.5 66.5t-58.5 27.5q-37 0 -64 -27.5t-27 -66.5t26.5 -66.5t63.5 -27.5z" />
    <glyph glyph-name="q" unicode="q" horiz-adv-x="590" 
d="M478 488q35 0 59.5 -25t24.5 -59q-1 -42 -1 -63v-470q0 -45 -32.5 -77.5t-78.5 -32.5h-80q4 42 4 121v161q-28 -23 -59 -34.5t-81 -11.5q-93 0 -158 70.5t-65 173.5q0 109 66 183t163 74q90 0 134 -40v30h104zM291 153q35 0 60.5 27.5t25.5 66.5t-25.5 66.5t-60.5 27.5
q-37 0 -62.5 -27.5t-25.5 -66.5t25.5 -66.5t62.5 -27.5z" />
    <glyph glyph-name="r" unicode="r" horiz-adv-x="423" 
d="M358 498q15 0 23.5 -2t12.5 -2v-196q-34 23 -70 23q-27 0 -46 -19t-26 -42.5t-7 -47.5v-107q0 -41 -29 -70.5t-70 -29.5h-93q3 51 3 101v277h-53q27 60 37 105h185v-104q14 51 49 82.5t84 31.5z" />
    <glyph glyph-name="s" unicode="s" horiz-adv-x="406" 
d="M204 353q0 -8 13.5 -16.5t34 -16.5t44 -22.5t43.5 -31.5t33.5 -46t13.5 -64q0 -74 -52 -118.5t-152 -44.5q-31 0 -77 9q-39 8 -64.5 39t-25.5 71v77q23 -24 76 -44.5t84 -20.5q25 0 25 19q0 8 -13 16.5t-33 16.5t-43 21.5t-43 30.5t-33.5 45.5t-13.5 63.5q0 78 54 119.5
t154 41.5q18 0 37 -2q41 -5 69 -36t28 -72v-65q-19 23 -60.5 37t-66.5 14q-17 0 -24.5 -6.5t-7.5 -14.5z" />
    <glyph glyph-name="t" unicode="t" horiz-adv-x="424" 
d="M396 459q0 -52 -37 -89t-89 -37v-97q0 -84 66 -84q36 0 46 10v-64q0 -42 -29.5 -71.5t-70.5 -29.5h-2q-84 0 -140.5 51t-56.5 149v136h-65v155h65v41q0 56 -3 92h193q-3 -38 -3 -92v-41h126v-29z" />
    <glyph glyph-name="u" unicode="u" horiz-adv-x="577" 
d="M544 387v-137v-137q0 -45 -31 -76.5t-76 -31.5h-60v56q-48 -65 -153 -65q-79 0 -125 53t-46 152v181h-53q20 43 36 106h210q-5 -50 -5 -101v-161q0 -46 18.5 -63.5t40.5 -17.5q8 0 16 2.5t18 10t16 25t6 43.5v161q0 62 -4 101h196q-4 -40 -4 -101z" />
    <glyph glyph-name="v" unicode="v" horiz-adv-x="521" 
d="M535 488q-30 -51 -57 -105q-169 -334 -174 -345q-10 -21 -29 -33t-42 -12q-12 32 -36 80l-154 309q-24 48 -58 106h223q6 -26 19 -56l48 -130l47 135q9 24 15 51h198z" />
    <glyph glyph-name="w" unicode="w" horiz-adv-x="752" 
d="M761 488q-29 -51 -74 -159q-107 -262 -114 -281q-9 -23 -29 -37t-45 -14q-17 36 -40 78l-87 155q-92 -173 -96 -182q-11 -23 -33.5 -37t-48.5 -14q-21 56 -54 133l-112 258q-28 63 -48 100h214q5 -28 19 -70l49 -127l72 151q12 24 18 46h64q7 -21 21 -48l68 -139l34 91
q8 22 30 96h192z" />
    <glyph glyph-name="x" unicode="x" horiz-adv-x="510" 
d="M440 121q51 -81 89 -116h-224q-18 42 -40 86l-17 29l-16 -31q-20 -34 -35 -84h-217q31 36 83 116l85 126l-93 153q-29 49 -64 88h222q12 -38 33 -77l17 -31l20 33q21 38 36 75h204q-47 -58 -67 -88l-94 -146z" />
    <glyph glyph-name="y" unicode="y" horiz-adv-x="554" 
d="M366 488h208q-26 -44 -50 -106q-101 -244 -146 -332q-43 -85 -102 -178q-39 -64 -89 -91t-124 -27q-27 0 -57 10q46 49 72 88q80 113 120 190l-165 346q-22 43 -53 100h219q6 -31 21 -66l74 -171q26 66 56 167q7 19 16 70z" />
    <glyph glyph-name="y" unicode="&#xff;" horiz-adv-x="554" 
d="M366 488h208q-26 -44 -50 -106q-101 -244 -146 -332q-43 -85 -102 -178q-39 -64 -89 -91t-124 -27q-27 0 -57 10q46 49 72 88q80 113 120 190l-165 346q-22 43 -53 100h219q6 -31 21 -66l74 -171q26 66 56 167q7 19 16 70z" />
    <glyph glyph-name="y" unicode="&#xfd;" horiz-adv-x="554" 
d="M366 488h208q-26 -44 -50 -106q-101 -244 -146 -332q-43 -85 -102 -178q-39 -64 -89 -91t-124 -27q-27 0 -57 10q46 49 72 88q80 113 120 190l-165 346q-22 43 -53 100h219q6 -31 21 -66l74 -171q26 66 56 167q7 19 16 70z" />
    <glyph glyph-name="z" unicode="z" horiz-adv-x="463" 
d="M382 161q47 0 80 3v-79q0 -33 -23.5 -56.5t-56.5 -23.5h-382l178 327h-86q-32 0 -55.5 23t-23.5 56v80q35 -3 82 -3h363l-180 -327h104z" />
    <glyph glyph-name="braceleft" unicode="{" horiz-adv-x="459" 
d="M431 930v-133q-17 3 -41 3q-49 0 -72 -24t-23 -65q0 -16 1.5 -47.5t1.5 -47.5q0 -55 -30 -92t-74 -52q42 -13 73 -51.5t31 -93.5q0 -19 -1.5 -55t-1.5 -54q0 -89 95 -89q13 0 41 3v-134q-25 3 -108 3q-85 0 -140 55.5t-55 149.5q0 18 1.5 54.5t1.5 55.5q0 49 -27 66.5
t-76 17.5v144q49 0 76 17t27 66q0 16 -1.5 48t-1.5 48q0 93 55 148.5t140 55.5q81 0 108 3z" />
    <glyph glyph-name="verticalbar" unicode="|" horiz-adv-x="204" 
d="M175 -2h-147l1 938h147z" />
    <glyph glyph-name="braceright" unicode="}" horiz-adv-x="459" 
d="M137 1q-84 0 -109 -3v134q28 -3 42 -3q94 0 94 89q0 18 -1 54t-1 55q0 55 31 93.5t72 51.5q-43 15 -73 52t-30 92q0 16 1 47.5t1 47.5q0 89 -94 89q-25 0 -42 -3v133q28 -3 109 -3q84 0 139 -55.5t55 -148.5q0 -16 -1.5 -48t-1.5 -48q0 -49 27 -66t76 -17v-144
q-48 0 -75.5 -18t-27.5 -66q0 -19 1.5 -55.5t1.5 -54.5q0 -94 -55 -149.5t-139 -55.5z" />
    <glyph glyph-name="asciitilde" unicode="~" horiz-adv-x="592" 
d="M182 304h-154q0 90 53 152.5t131 62.5q36 0 61 -9.5t36 -21t26 -21.5t31 -10q21 0 32 16t11 40h155q0 -89 -53.5 -151.5t-131.5 -62.5q-35 0 -59.5 9t-35 19.5t-26 19t-33.5 8.5q-19 0 -31 -15t-12 -36z" />
    <glyph glyph-name="nonbreakingspace" unicode="&#xa0;" horiz-adv-x="336" 
 />
    <glyph glyph-name="exclamdown" unicode="&#xa1;" horiz-adv-x="272" 
d="M244 597.5q0 -44.5 -31 -76t-76.5 -31.5t-77 31.5t-31.5 76t31.5 76t77 31.5t76.5 -31.5t31 -76zM235 115q0 -70 4 -114h-198q3 37 3 114v183q0 77 -3 115h198q-4 -52 -4 -115v-183z" />
    <glyph glyph-name="cent" unicode="&#xa2;" horiz-adv-x="429" 
d="M243 1v97q-97 15 -156 83t-59 160q0 93 59 162t156 85v99h94v-97q59 -8 60 -8v-195q-25 42 -84 42q-39 0 -66.5 -25.5t-27.5 -62.5q0 -36 27.5 -60.5t66.5 -24.5q60 0 88 44v-197q-12 -1 -32 -4t-32 -4v-94h-94z" />
    <glyph glyph-name="sterling" unicode="&#xa3;" horiz-adv-x="600" 
d="M65 408h106l3 24q12 121 84 187t210 66q28 0 63 -6.5t41 -7.5v-174q-20 21 -42 28.5t-54 7.5q-52 0 -80.5 -26t-33.5 -72l-3 -27h137q0 -49 -34.5 -83.5t-82.5 -34.5h-31l-3 -20q-4 -37 -25.5 -71.5t-45.5 -50.5h172q79 0 106 3v-40q0 -46 -32 -78t-77 -32h-2h-413v147
q30 0 49 4t37.5 16t29.5 37.5t16 66.5l3 18h-98v118z" />
    <glyph glyph-name="currency" unicode="&#xa4;" horiz-adv-x="570" 
d="M125 4l-91 91l68 67q-25 42 -25 91q0 45 25 96l-74 74l88 88l76 -76q16 9 44 14.5t49 5.5q42 0 92 -19l68 69l90 -90l-65 -66q24 -55 24 -96q0 -21 -7.5 -48t-16.5 -43l72 -72l-88 -89l-77 75q-41 -20 -92 -20q-54 0 -91 19zM238 255q0 -22 13.5 -37t34 -15t34.5 15
t14 37t-14 38t-34.5 16t-34 -16t-13.5 -38z" />
    <glyph glyph-name="yen" unicode="&#xa5;" horiz-adv-x="636" 
d="M209 1q4 63 4 106v18h-109v88h109v40h-109v89h109v13l-137 245q-35 61 -48 77h219q4 -18 26 -65l49 -91l51 90q24 43 33 66h202q-24 -34 -70 -114l-127 -215v-6h115v-89h-115v-40h115v-88h-115v-19q0 -42 4 -105h-206z" />
    <glyph glyph-name="section" unicode="&#xa7;" horiz-adv-x="540" 
d="M456 612q-19 19 -59 33t-84 14q-51 0 -51 -32q0 -17 18.5 -30.5t46.5 -22.5t60 -23.5t60 -31t46.5 -48t18.5 -72.5q0 -79 -81 -120q24 -15 40 -44t16 -67q0 -79 -61 -123t-177 -44q-50 0 -114 12t-66 13v170q26 -33 76.5 -50t98.5 -17q63 0 63 36q0 17 -21 30.5t-52 22.5
t-67 23t-67 31t-51.5 49t-20.5 74q0 45 26 78t72 49q-20 15 -38 45.5t-18 64.5q0 72 51 114.5t162 42.5q54 0 107 -12.5t66 -13.5v-151zM214 465q-22 -11 -22 -37q0 -22 19 -35.5t60.5 -28t60.5 -24.5q17 17 17 36q0 25 -23.5 40.5t-61.5 28t-50 20.5z" />
    <glyph glyph-name="copyright" unicode="&#xa9;" horiz-adv-x="787" 
d="M28 376q0 100 49 184t133 133t184 49q99 0 183 -49t133 -133t49 -184t-49 -185.5t-133 -135t-183 -49.5q-100 0 -184 49.5t-133 135t-49 185.5zM129 376q0 -114 77.5 -193.5t187 -79.5t186.5 79.5t77 193.5q0 113 -77 192t-186.5 79t-187 -79t-77.5 -192zM369 375
q0 -26 20 -43.5t48 -17.5q22 0 43 9t32 23v-153q-6 -1 -34.5 -4.5t-51.5 -3.5q-83 0 -139.5 55.5t-56.5 134.5q0 80 56.5 136.5t139.5 56.5q22 0 48.5 -4.5t33.5 -4.5v-152q-9 15 -29 23.5t-42 8.5q-28 0 -48 -19t-20 -45z" />
    <glyph glyph-name="softhyphen" unicode="&#xad;" horiz-adv-x="0" 
 />
    <glyph glyph-name="registered" unicode="&#xae;" horiz-adv-x="383" 
d="M28 631q0 68 47.5 115.5t115.5 47.5t116 -48t48 -115q0 -69 -48 -117.5t-116 -48.5t-115.5 48t-47.5 118zM79 630.5q0 -48.5 33 -84t79 -35.5q47 0 81 35.5t34 84.5q0 48 -33.5 83t-80.5 35t-80 -35t-33 -83.5zM175 607v-22q0 -9 0.5 -20t0.5 -13h-53q2 12 2 39v76
q0 30 -2 44h63q32 0 48 -15t16 -38q0 -16 -9 -28t-22 -15q28 -34 55 -63h-63q-7 11 -26 55h-10zM175 675v-34h15q19 0 19 16q0 8 -5.5 13t-13.5 5h-15z" />
    <glyph glyph-name="mu" unicode="&#xb5;" horiz-adv-x="604" 
d="M219 224q0 -37 16 -57t42 -20q25 0 41.5 20t16.5 56v165q0 66 -5 101h196q-4 -37 -4 -101v-194q0 -34 6.5 -46t24.5 -12q17 0 23 5v-32q0 -47 -32.5 -81t-78.5 -34h-2q-89 0 -109 76q-24 -40 -48.5 -56.5t-69.5 -16.5q-34 0 -55 14q13 -21 20 -58.5t8 -59t1 -67.5v-1
q1 -34 -22 -57.5t-56 -23.5h-103q3 32 3 101v554q0 49 -4 90h197q-6 -48 -6 -101v-164z" />
    <glyph glyph-name="paragraph" unicode="&#xb6;" horiz-adv-x="675" 
d="M312 -213q3 114 3 227v186h-5q-130 0 -206 78t-76 193q0 39 9.5 77t31 74t53.5 62.5t80 42.5t108 16h337v-31q0 -55 -38.5 -93.5t-93.5 -38.5v-589q1 -85 -59 -144.5t-144 -59.5z" />
    <glyph glyph-name="questiondown" unicode="&#xbf;" horiz-adv-x="417" 
d="M303 167q23 1 48 7.5t38 17.5v-172q-3 -1 -51 -10t-90 -9q-105 0 -162.5 50t-57.5 138q0 58 31.5 111.5t90.5 88.5q-7 38 -18 71h188q1 -8 26 -125q-58 -34 -85.5 -59.5t-27.5 -54.5q0 -21 18 -37.5t52 -16.5zM327 602q0 -44 -31 -74.5t-75.5 -30.5t-76 30.5t-31.5 74.5
t32 75t76 31t75 -31t31 -75z" />
    <glyph glyph-name="Agrave" unicode="&#xc0;" 
d="M784 0h-228q-5 15 -25 64l-21 46h-242l-31 -66q-13 -30 -15 -44h-194q46 77 82 154l261 552h54l273 -552q27 -58 86 -154zM360 896l137 -151h-173l-181 151h217zM446 260l-59 143l-58 -143h117z" />
    <glyph glyph-name="Aacute" unicode="&#xc1;" 
d="M784 0h-228q-5 15 -25 64l-21 46h-242l-31 -66q-13 -30 -15 -44h-194q46 77 82 154l261 552h54l273 -552q27 -58 86 -154zM304 745l135 151h218l-181 -151h-172zM446 260l-59 143l-58 -143h117z" />
    <glyph glyph-name="Acircumflex" unicode="&#xc2;" 
d="M556 0q-5 14 -25 64l-21 46h-242l-31 -66q-14 -30 -16 -44h-193q46 77 82 154l261 552h54l273 -552q27 -58 86 -154h-228zM405 782l-36 -36h-169l189 163h39l185 -163h-175zM446 260l-59 143l-58 -143h117z" />
    <glyph glyph-name="Atilde" unicode="&#xc3;" 
d="M556 0q-5 15 -25 64l-21 46h-242l-31 -66q-14 -30 -15 -44h-194q46 77 82 154l261 552h54l273 -552q27 -58 86 -154h-228zM171 752q0 70 42 114t116 44q31 0 54.5 -7t34.5 -15.5t24.5 -16t26.5 -7.5q35 0 35 37l124 1q0 -69 -42 -113t-117 -44q-37 0 -62.5 10t-42.5 19.5
t-35 9.5q-35 0 -35 -32h-123zM446 260l-59 143l-58 -143h117z" />
    <glyph glyph-name="Adieresis" unicode="&#xc4;" 
d="M556 0q-4 12 -25 64l-21 46h-242l-31 -66q-14 -30 -16 -44h-193q46 77 82 154l261 552h54l273 -552q27 -58 86 -154h-228zM176 837q0 40 29 68.5t69 28.5q42 0 70.5 -28.5t28.5 -68.5t-28.5 -67.5t-70.5 -27.5q-40 0 -69 28t-29 67zM446 260l-59 143l-58 -143h117z
M424 837q0 40 29.5 68.5t70.5 28.5t69.5 -28.5t28.5 -68.5t-28.5 -67.5t-69.5 -27.5t-70.5 28t-29.5 67z" />
    <glyph glyph-name="Aring" unicode="&#xc5;" 
d="M285 809q0 44 34 75t81 31q48 0 81 -31t33 -75q0 -38 -25 -67t-64 -38l273 -550q27 -58 86 -154h-228q-5 15 -25 64l-21 46h-242l-31 -66q-13 -30 -16 -44h-193q46 77 82 154l260 551q-37 10 -61 38.5t-24 65.5zM446 260l-59 143l-58 -143h117zM370 809q0 -12 9 -20.5
t21 -8.5t20.5 8.5t8.5 20.5t-8.5 20.5t-20.5 8.5t-21 -8.5t-9 -20.5z" />
    <glyph glyph-name="AE" unicode="&#xc6;" horiz-adv-x="913" 
d="M505 0q-2 20 -9 54l-12 44h-197l-24 -48q-11 -24 -20 -50h-215q34 50 84 154l297 540h246q73 0 165 5v-172q-40 4 -131 4h-112l31 -104h86q96 0 143 3v-170q-40 3 -114 3h-80l28 -99h71q88 0 143 4v-31q1 -57 -39 -97t-97 -40h-2h-242zM417 394l-60 -133h94z" />
    <glyph glyph-name="Ccedilla" unicode="&#xc7;" horiz-adv-x="601" 
d="M292 -63l61 120q-145 14 -235 115.5t-90 243.5q0 99 45.5 180.5t130.5 130t193 48.5q51 0 99.5 -7.5t68.5 -7.5v-220q-61 63 -152 63q-80 0 -133.5 -54.5t-53.5 -132.5q0 -80 54 -135t135 -55q98 0 158 59v-213q-23 -1 -62 -7.5t-69 -8.5l-15 -27q43 -10 66.5 -37
t23.5 -69q0 -56 -37 -90t-111 -34q-19 0 -49 7t-40 8v100q27 -25 70 -25q21 0 33 7.5t12 19.5q0 31 -54 31q-30 0 -49 -10z" />
    <glyph glyph-name="Egrave" unicode="&#xc8;" horiz-adv-x="516" 
d="M246 900l137 -151h-174l-181 151h218zM304 535h-54v-94h41q113 0 175 4v-171q-64 4 -175 4h-41v-110h62q119 0 176 4v-172q-63 4 -176 4h-265q4 114 4 181v333q0 121 -4 180h257q80 0 176 6v-173q-42 4 -176 4z" />
    <glyph glyph-name="Eacute" unicode="&#xc9;" horiz-adv-x="535" 
d="M284 535h-53v-94h40q114 0 176 4v-171q-64 4 -176 4h-40v-110h61q119 0 177 4v-172q-64 4 -177 4h-264q4 111 4 181v333q0 119 -4 180h256q81 0 177 6v-173q-42 4 -177 4zM154 749l135 151h218l-181 -151h-172z" />
    <glyph glyph-name="Ecircumflex" unicode="&#xca;" horiz-adv-x="497" 
d="M231 441h40q114 0 176 4v-171q-64 4 -176 4h-40v-110h61q119 0 177 4v-172q-64 4 -177 4h-264q4 111 4 181v333q0 119 -4 180h256q78 0 177 6v-173q-42 4 -177 4h-53v-94zM244 786l-36 -36h-169l189 163h39l185 -163h-175z" />
    <glyph glyph-name="Edieresis" unicode="&#xcb;" horiz-adv-x="503" 
d="M28 841q0 40 29 68.5t69 28.5q42 0 71 -28t29 -69q0 -40 -29 -67.5t-71 -27.5q-40 0 -69 28t-29 67zM237 535v-94h40q114 0 176 4v-171q-64 4 -176 4h-40v-110h62q119 0 176 4v-172q-64 4 -176 4h-265q4 111 4 181v333q0 119 -4 180h257q78 0 176 6v-173q-42 4 -176 4
h-54zM276 841q0 40 29.5 68.5t71.5 28.5q40 0 68.5 -28.5t28.5 -68.5q0 -39 -28.5 -67t-68.5 -28q-42 0 -71.5 28t-29.5 67z" />
    <glyph glyph-name="Igrave" unicode="&#xcc;" horiz-adv-x="254" 
d="M89 896l137 -151h-174l-181 151h218zM222 181q0 -118 4 -181h-206q4 63 4 181v332q0 120 -4 181h206q-4 -61 -4 -181v-332z" />
    <glyph glyph-name="Iacute" unicode="&#xcd;" horiz-adv-x="410" 
d="M28 745l136 151h218l-182 -151h-172zM231 513v-332q0 -118 4 -181h-206q4 63 4 181v332q0 120 -4 181h206q-4 -61 -4 -181z" />
    <glyph glyph-name="Icircumflex" unicode="&#xce;" horiz-adv-x="468" 
d="M233 782l-36 -36h-169l188 163h40l184 -163h-174zM333 181q0 -121 4 -181h-206q4 63 4 181v332q0 120 -4 181h206q-4 -61 -4 -181v-332z" />
    <glyph glyph-name="Idieresis" unicode="&#xcf;" horiz-adv-x="502" 
d="M28 837q0 40 29 68.5t69 28.5q42 0 71 -28.5t29 -68.5t-29 -67.5t-71 -27.5q-40 0 -69 28t-29 67zM350 181q0 -119 4 -181h-205q4 63 4 181v332q0 120 -4 181h205q-4 -61 -4 -181v-332zM276 837q0 40 29.5 68.5t71.5 28.5q40 0 68.5 -28.5t28.5 -68.5t-28.5 -67.5
t-68.5 -27.5q-42 0 -71.5 28t-29.5 67z" />
    <glyph glyph-name="Ntilde" unicode="&#xd1;" horiz-adv-x="665" 
d="M222 158q0 -89 4 -146h-198q4 57 4 147v359q0 92 -4 201h42q68 -68 116 -108l257 -221v135q0 96 -4 181h198q-5 -113 -5 -181v-361q0 -91 5 -164h-39q-74 76 -100 98l-276 237v-177zM104 764q0 70 42 114t116 44q31 0 54.5 -7t34.5 -15.5t24.5 -15.5t26.5 -7q35 0 35 36
l124 1q0 -69 -42 -113t-117 -44q-37 0 -62.5 10t-43 20t-34.5 10q-35 0 -35 -33h-123z" />
    <glyph glyph-name="Ograve" unicode="&#xd2;" horiz-adv-x="757" 
d="M0 361q0 98 49 180.5t136 130.5t193 48q107 0 194 -48t136 -130.5t49 -180.5q0 -99 -49 -181.5t-136 -131t-194 -48.5q-106 0 -193 48.5t-136 131t-49 181.5zM348 909l136 -151h-173l-181 151h218zM200 361q0 -81 51 -137.5t127 -56.5t127.5 56.5t51.5 137.5t-51.5 137
t-127.5 56t-127 -56t-51 -137z" />
    <glyph glyph-name="Oacute" unicode="&#xd3;" horiz-adv-x="757" 
d="M0 361q0 98 49 180.5t136 130.5t193 48q107 0 194 -48t136 -130.5t49 -180.5q0 -99 -49 -181.5t-136 -131t-194 -48.5q-106 0 -193 48.5t-136 131t-49 181.5zM200 361q0 -81 51 -137.5t127 -56.5t127.5 56.5t51.5 137.5t-51.5 137t-127.5 56t-127 -56t-51 -137zM275 758
l135 151h218l-181 -151h-172z" />
    <glyph glyph-name="Ocircumflex" unicode="&#xd4;" horiz-adv-x="757" 
d="M0 361q0 98 49 180.5t136 130.5t193 48q107 0 194 -48t136 -130.5t49 -180.5q0 -99 -49 -181.5t-136 -131t-194 -48.5q-106 0 -193 48.5t-136 131t-49 181.5zM377 796l-35 -37h-170l189 163h39l185 -163h-174zM200 360.5q0 -81.5 51 -137.5t127 -56t127.5 56.5
t51.5 137.5t-51.5 137t-127.5 56t-127 -56t-51 -137.5z" />
    <glyph glyph-name="Otilde" unicode="&#xd5;" horiz-adv-x="757" 
d="M0 361q0 98 49 180.5t136 130.5t193 48q107 0 194 -48t136 -130.5t49 -180.5q0 -99 -49 -181.5t-136 -131t-194 -48.5q-106 0 -193 48.5t-136 131t-49 181.5zM150 765q0 70 42 114t116 44q31 0 54.5 -7t34.5 -15.5t24.5 -15.5t26.5 -7q35 0 35 36l124 1q0 -69 -42 -113
t-117 -44q-37 0 -62.5 10t-42.5 20t-35 10q-35 0 -35 -33h-123zM200 361q0 -81 51 -137.5t127 -56.5t127.5 56.5t51.5 137.5t-51.5 137t-127.5 56t-127 -56t-51 -137z" />
    <glyph glyph-name="Odieresis" unicode="&#xd6;" horiz-adv-x="786" 
d="M0 361q0 98 49 180.5t136 130.5t193 48q107 0 194 -48t136 -130.5t49 -180.5q0 -99 -49 -181.5t-136 -131t-194 -48.5q-106 0 -193 48.5t-136 131t-49 181.5zM155 850q0 40 29 68.5t69 28.5q42 0 71 -28t29 -69q0 -40 -29 -67.5t-71 -27.5q-40 0 -69 28t-29 67z
M200 360.5q0 -81.5 51 -137.5t127 -56t127.5 56.5t51.5 137.5t-51.5 137t-127.5 56t-127 -56t-51 -137.5zM403 850q0 40 30 68.5t71 28.5q40 0 68.5 -28.5t28.5 -68.5q0 -39 -28.5 -67t-68.5 -28q-42 0 -71.5 28t-29.5 67z" />
    <glyph glyph-name="Oslash" unicode="&#xd8;" horiz-adv-x="757" 
d="M673 587q84 -100 84 -226q0 -99 -49 -181.5t-136 -131t-194 -48.5q-91 0 -175 41l-13 -15l-159 74l41 48q-72 95 -72 213q0 98 49 180.5t136 131t193 48.5q84 0 160 -33l26 30l158 -74zM309 572q-67 -22 -95 -98t-1 -163l213 248q-61 31 -117 13zM448 149q68 22 96 100
t-1 165q-1 3 -3 8t-3 7l-222 -258q67 -44 133 -22z" />
    <glyph glyph-name="Ugrave" unicode="&#xd9;" horiz-adv-x="658" 
d="M28 705h208q-5 -69 -5 -181v-238q0 -55 28.5 -85t69.5 -30q42 0 70.5 30t28.5 85v238q0 98 -4 181h206q-3 -68 -3 -181v-233q0 -134 -85 -212.5t-213 -78.5q-129 0 -213 78t-84 213v233q0 127 -4 181zM300 907l136 -151h-173l-181 151h218z" />
    <glyph glyph-name="Uacute" unicode="&#xda;" horiz-adv-x="658" 
d="M28 705h208q-5 -69 -5 -181v-238q0 -55 28.5 -85t69.5 -30q42 0 70.5 30t28.5 85v238q0 98 -4 181h206q-3 -68 -3 -181v-233q0 -134 -85 -212.5t-213 -78.5q-129 0 -213 78t-84 213v233q0 127 -4 181zM227 756l135 151h218l-181 -151h-172z" />
    <glyph glyph-name="Ucircumflex" unicode="&#xdb;" horiz-adv-x="658" 
d="M28 705h208q-5 -69 -5 -181v-238q0 -55 28.5 -85t69.5 -30q42 0 70.5 30t28.5 85v238q0 98 -4 181h206q-3 -68 -3 -181v-233q0 -134 -85 -212.5t-213 -78.5q-129 0 -213 78t-84 213v233q0 127 -4 181zM328 793l-35 -36h-170l189 163h39l185 -163h-174z" />
    <glyph glyph-name="Udieresis" unicode="&#xdc;" horiz-adv-x="658" 
d="M28 705h208q-5 -69 -5 -181v-238q0 -55 28.5 -85t69.5 -30q42 0 70.5 30t28.5 85v238q0 96 -4 181h206q-3 -68 -3 -181v-233q0 -134 -85 -212.5t-213 -78.5q-129 0 -213 78t-84 213v233q0 127 -4 181zM106 848q0 40 29 68.5t69 28.5q42 0 71 -28t29 -69q0 -39 -29 -67
t-71 -28q-40 0 -69 28t-29 67zM354 848q0 40 30 68.5t71 28.5q40 0 68.5 -28.5t28.5 -68.5q0 -39 -28.5 -67t-68.5 -28q-41 0 -71 28t-30 67z" />
    <glyph glyph-name="germandbls" unicode="&#xdf;" horiz-adv-x="620" 
d="M332 295q-35 0 -63 -16v172q8 -2 29 -2q29 0 49.5 23.5t20.5 55.5t-21 54t-52 22q-34 0 -55.5 -25t-21.5 -78v-370q0 -48 -34 -82t-82 -34h-74q3 45 3 117v380q0 59 22.5 107t60.5 78t85 45.5t99 15.5q110 0 177.5 -56.5t67.5 -154.5q0 -44 -23.5 -81t-72.5 -55
q56 -15 100.5 -64t44.5 -120q0 -106 -66 -166t-177 -60q-27 0 -60 6t-39 7v174q28 -30 83 -30q29 0 49.5 19.5t20.5 45.5q0 31 -20.5 51.5t-50.5 20.5z" />
    <glyph glyph-name="agrave" unicode="&#xe0;" horiz-adv-x="547" 
d="M218 730l128 -173h-161l-157 173h190zM196 371q-74 0 -123 -48v147q11 1 36 10.5t61.5 17.5t80.5 8q108 0 161.5 -59t53.5 -162v-106q0 -37 26 -37q19 0 27 5v-30q0 -48 -34 -82.5t-82 -34.5q-68 0 -102 50q-45 -50 -116 -50q-69 0 -111.5 41t-42.5 109q0 67 43.5 111.5
t117.5 44.5q60 0 90 -19v19q0 32 -22.5 48.5t-63.5 16.5zM209 156q0 -16 12 -27t29 -10q20 1 31 19q11 19 -0.5 36.5t-32.5 17.5q-16 0 -27.5 -10.5t-11.5 -25.5z" />
    <glyph glyph-name="aacute" unicode="&#xe1;" horiz-adv-x="544" 
d="M193 371q-74 0 -124 -48v147q12 1 37 10t61.5 17.5t80.5 8.5q108 0 161.5 -59t53.5 -162v-106q0 -37 26 -37q19 0 27 5v-29q0 -48 -33.5 -83t-80.5 -35h-2q-68 0 -103 50q-45 -50 -115 -50q-69 0 -111.5 41t-42.5 109q0 67 43.5 111.5t117.5 44.5q60 0 90 -19v19
q0 32 -22.5 48.5t-63.5 16.5zM154 557l127 173h190l-157 -173h-160zM206 156q0 -16 11.5 -26.5t27.5 -10.5t27 10.5t11 26.5q0 15 -11 25.5t-27 10.5t-27.5 -10.5t-11.5 -25.5z" />
    <glyph glyph-name="acircumflex" unicode="&#xe2;" horiz-adv-x="544" 
d="M193 371q-74 0 -123 -48v147q11 1 36 10t61.5 17.5t80.5 8.5q108 0 161.5 -59t53.5 -162v-106q0 -37 26 -37q19 0 27 5v-29q0 -48 -33.5 -83t-80.5 -35h-2q-68 0 -103 50q-45 -50 -115 -50q-69 0 -111.5 41t-42.5 109q0 67 43.5 111.5t117.5 44.5q60 0 90 -19v19
q0 32 -22.5 48.5t-63.5 16.5zM245 604l-35 -51h-137l154 187h39l158 -187h-145zM206 156q0 -16 11.5 -26.5t27.5 -10.5t27 10.5t11 26.5q0 15 -11 25.5t-27 10.5t-27.5 -10.5t-11.5 -25.5z" />
    <glyph glyph-name="atilde" unicode="&#xe3;" horiz-adv-x="544" 
d="M193 371q-74 0 -123 -48v147q11 1 36 10t61.5 17.5t80.5 8.5q108 0 161.5 -59t53.5 -162v-106q0 -37 26 -37q19 0 27 5v-29q0 -48 -33.5 -83t-80.5 -35h-2q-68 0 -103 50q-45 -50 -115 -50q-69 0 -111.5 41t-42.5 109q0 67 43.5 111.5t117.5 44.5q60 0 90 -19v19
q0 32 -22.5 48.5t-63.5 16.5zM64 554q0 64 36 108t91 44q30 0 51 -10t34 -20t25 -10q11 0 17.5 9.5t6.5 23.5h106q0 -63 -33.5 -107.5t-85.5 -44.5q-30 0 -51 10.5t-34.5 21t-25.5 10.5q-24 0 -24 -35h-113zM206 156q0 -16 11.5 -26.5t27.5 -10.5t27 10.5t11 26.5
q0 15 -11 25.5t-27 10.5t-27.5 -10.5t-11.5 -25.5z" />
    <glyph glyph-name="adieresis" unicode="&#xe4;" horiz-adv-x="544" 
d="M193 371q-74 0 -123 -48v147q11 1 36 10t61.5 17.5t80.5 8.5q108 0 161.5 -59t53.5 -162v-106q0 -37 26 -37q19 0 27 5v-29q0 -48 -33.5 -83t-80.5 -35h-2q-68 0 -103 50q-45 -50 -115 -50q-69 0 -111.5 41t-42.5 109q0 67 43.5 111.5t117.5 44.5q60 0 90 -19v19
q0 32 -22.5 48.5t-63.5 16.5zM43 644q0 37 26.5 63.5t62.5 26.5q38 0 64.5 -26.5t26.5 -64t-26.5 -63.5t-64.5 -26q-36 0 -62.5 26.5t-26.5 63.5zM206 156q0 -16 11.5 -26.5t27.5 -10.5t27 10.5t11 26.5q0 15 -11 25.5t-27 10.5t-27.5 -10.5t-11.5 -25.5zM282 643.5
q0 37.5 27 64t65 26.5q36 0 62 -26.5t26 -64t-26 -63.5t-62 -26q-38 0 -65 26t-27 63.5z" />
    <glyph glyph-name="ae" unicode="&#xe6;" horiz-adv-x="761" 
d="M69 324v146q7 0 63 18t96 18q108 0 149 -61q56 60 143 60q97 0 155 -74.5t58 -191.5q0 -15 -3 -24h-286q28 -68 112 -68q71 0 120 28v-32q0 -57 -40.5 -98t-96.5 -41h-2q-110 0 -192 77q-31 -40 -66 -60.5t-91 -20.5q-74 0 -117 42.5t-43 107.5t43 110.5t117 45.5
q54 0 92 -20v17q0 31 -23.5 49.5t-68.5 18.5q-63 0 -119 -47zM207 156q0 -16 11 -26.5t28 -10.5q15 0 26 10.5t11 26.5q0 15 -11 25.5t-26 10.5q-17 0 -28 -10.5t-11 -25.5zM499 371q-21 0 -37 -15.5t-23 -45.5h116q-2 27 -16.5 44t-39.5 17z" />
    <glyph glyph-name="ccedilla" unicode="&#xe7;" horiz-adv-x="435" 
d="M189 -110l62 123q-101 14 -162 82.5t-61 161.5q0 107 76.5 179.5t195.5 72.5q19 0 53.5 -5t44.5 -6v-194q-19 21 -40 32t-54 11q-39 0 -66 -26.5t-27 -63.5q0 -36 27 -62t66 -26q59 0 98 47v-197q-13 -1 -33 -4t-32 -4l-17 -32q41 -9 64 -35.5t23 -67.5
q0 -55 -36.5 -87.5t-108.5 -32.5q-19 0 -47.5 7t-37.5 8v97q25 -25 68 -25q19 0 31 7.5t12 19.5q0 30 -52 30q-30 0 -47 -10z" />
    <glyph glyph-name="egrave" unicode="&#xe8;" horiz-adv-x="532" 
d="M502 211h-297q35 -68 124 -68q63 0 114 27v-151q-11 0 -59 -9.5t-89 -9.5q-113 0 -190 71.5t-77 176.5q0 106 69 179.5t170 73.5q102 0 169.5 -73.5t67.5 -179.5q0 -21 -2 -37zM224 726l127 -173h-161l-157 173h191zM261 367q-22 0 -39 -17t-23 -44h120q-3 23 -17.5 42
t-40.5 19z" />
    <glyph glyph-name="eacute" unicode="&#xe9;" horiz-adv-x="533" 
d="M502 211h-297q35 -68 124 -68q63 0 114 27v-151q-11 0 -59 -9.5t-89 -9.5q-113 0 -190 71.5t-77 176.5q0 106 69 179.5t170 73.5q102 0 169.5 -73.5t67.5 -179.5q0 -21 -2 -37zM188 553l128 173h189l-157 -173h-160zM261 367q-22 0 -39 -17t-23 -44h120q-3 23 -17.5 42
t-40.5 19z" />
    <glyph glyph-name="ecircumflex" unicode="&#xea;" horiz-adv-x="532" 
d="M502 211h-297q35 -68 124 -68q63 0 114 27v-151q-11 0 -59 -9.5t-89 -9.5q-113 0 -190 71.5t-77 176.5q0 106 69 179.5t170 73.5q102 0 169.5 -73.5t67.5 -179.5q0 -21 -2 -37zM263 600l-34 -51h-138l154 187h39l158 -187h-144zM261 367q-22 0 -39 -17t-23 -44h120
q-3 23 -17.5 42t-40.5 19z" />
    <glyph glyph-name="edieresis" unicode="&#xeb;" horiz-adv-x="532" 
d="M205 211q35 -68 124 -68q63 0 114 27v-151q-11 0 -59 -9.5t-88 -9.5q-114 0 -191 71.5t-77 176.5q0 106 69 179.5t170 73.5q102 0 169.5 -73.5t67.5 -179.5q0 -21 -2 -37h-297zM57 640q0 37 26.5 63.5t63.5 26.5t63.5 -26.5t26.5 -64t-26.5 -63.5t-63.5 -26t-63.5 26.5
t-26.5 63.5zM261 367q-22 0 -39 -17t-23 -44h120q-3 23 -17.5 42t-40.5 19zM297 639.5q0 37.5 26.5 64t64.5 26.5q36 0 62 -26.5t26 -64t-26 -63.5t-62 -26q-38 0 -64.5 26t-26.5 63.5z" />
    <glyph glyph-name="igrave" unicode="&#xec;" horiz-adv-x="381" 
d="M218 718l128 -173h-161l-157 173h190zM349 101q0 -62 4 -101h-194q2 43 2 101v276h-53q8 15 37 106h208q-4 -44 -4 -101v-281z" />
    <glyph glyph-name="iacute" unicode="&#xed;" horiz-adv-x="429" 
d="M269 101q0 -63 4 -101h-194q2 43 2 101v276h-53q8 14 37 106h208q-4 -45 -4 -101v-281zM84 545l127 173h190l-157 -173h-160z" />
    <glyph glyph-name="icircumflex" unicode="&#xee;" horiz-adv-x="408" 
d="M200 592l-34 -51h-138l154 187h40l158 -187h-145zM298 101q0 -62 5 -101h-195q2 43 2 101v276h-53q8 15 38 106h207q-4 -44 -4 -101v-281z" />
    <glyph glyph-name="idieresis" unicode="&#xef;" horiz-adv-x="475" 
d="M28 631.5q0 37.5 26.5 64t62.5 26.5q37 0 63.5 -26.5t26.5 -64t-26.5 -63.5t-63.5 -26t-63 26t-26 63.5zM332 101q0 -63 4 -101h-195q2 43 2 101v276h-52q8 15 37 106h208q-4 -44 -4 -101v-281zM267 631.5q0 37.5 26.5 64t64.5 26.5q37 0 63 -26.5t26 -64t-26 -63.5
t-63 -26q-38 0 -64.5 26t-26.5 63.5z" />
    <glyph glyph-name="ntilde" unicode="&#xf1;" horiz-adv-x="602" 
d="M382 264q0 36 -14.5 58t-41.5 22q-57 0 -57 -79v-163q0 -64 4 -102h-195q3 44 3 102v275h-53q24 55 37 106h204v-49q22 28 56 43.5t73 15.5q172 0 172 -229v-162q0 -64 4 -102h-196q4 38 4 102v162zM255 542h-114q1 64 37 108t91 44q30 0 51 -10t34 -20t25 -10
q11 0 17.5 9.5t6.5 23.5h106q0 -63 -33.5 -107.5t-85.5 -44.5q-30 0 -51 10.5t-34.5 21t-25.5 10.5q-24 0 -24 -35z" />
    <glyph glyph-name="ograve" unicode="&#xf2;" horiz-adv-x="578" 
d="M28 249q0 105 76.5 178.5t184 73.5t184.5 -74t77 -178q0 -103 -77 -176t-185 -73t-184 73t-76 176zM241 725l127 -173h-161l-157 173h191zM206 249q0 -36 24 -61.5t58 -25.5q35 0 59 25.5t24 61.5q0 37 -24 63t-59 26q-34 0 -58 -25.5t-24 -63.5z" />
    <glyph glyph-name="oacute" unicode="&#xf3;" horiz-adv-x="578" 
d="M28 249q0 105 76 178.5t184 73.5t185 -74t77 -178q0 -103 -77 -176t-185 -73t-184 73t-76 176zM206 249q0 -36 24 -61.5t58 -25.5q35 0 59 25.5t24 61.5q0 37 -24 63t-59 26q-34 0 -58 -25.5t-24 -63.5zM209 552l128 173h190l-158 -173h-160z" />
    <glyph glyph-name="ocircumflex" unicode="&#xf4;" horiz-adv-x="578" 
d="M28 249q0 105 76 178.5t184 73.5t185 -74t77 -178q0 -103 -77 -176t-185 -73t-184 73t-76 176zM285 599l-34 -51h-138l154 187h40l158 -187h-145zM206 249q0 -36 24 -61.5t58 -25.5q35 0 59 25.5t24 61.5q0 37 -24 63t-59 26q-34 0 -58 -25.5t-24 -63.5z" />
    <glyph glyph-name="otilde" unicode="&#xf5;" horiz-adv-x="578" 
d="M28 249q0 105 76 178.5t184 73.5t185 -74t77 -178q0 -103 -77 -176t-185 -73t-184 73t-76 176zM218 549h-113q1 64 37 108t91 44q29 0 50 -10t34.5 -20t24.5 -10q12 0 18 9.5t6 23.5h107q0 -63 -34 -107.5t-86 -44.5q-29 0 -50 10.5t-35 21t-25 10.5q-25 0 -25 -35z
M206 249q0 -36 24 -61.5t58 -25.5q35 0 59 25.5t24 61.5q0 37 -24 63t-59 26q-34 0 -58 -25.5t-24 -63.5z" />
    <glyph glyph-name="odieresis" unicode="&#xf6;" horiz-adv-x="578" 
d="M28 249q0 105 76 178.5t184 73.5t185 -74t77 -178q0 -103 -77 -176t-185 -73t-184 73t-76 176zM80 638.5q0 37.5 26 64t63 26.5t63.5 -26.5t26.5 -64t-26.5 -63.5t-63.5 -26t-63 26t-26 63.5zM206 249q0 -36 24 -61.5t58 -25.5q35 0 59 25.5t24 61.5q0 37 -24 63t-59 26
q-34 0 -58 -25.5t-24 -63.5zM319 638.5q0 37.5 26.5 64t64.5 26.5q37 0 62.5 -26.5t25.5 -64t-25.5 -63.5t-62.5 -26q-38 0 -64.5 26t-26.5 63.5z" />
    <glyph glyph-name="oslash" unicode="&#xf8;" horiz-adv-x="577" 
d="M28 249q0 104 76 178t183 74q83 0 153 -48l35 38h73l-67 -73q68 -71 68 -169q0 -103 -76.5 -176t-185.5 -73q-82 0 -149 45l-34 -38h-75l68 73q-69 72 -69 169zM206 249q0 -22 9 -40l110 118q-19 10 -38 10q-34 0 -57.5 -25t-23.5 -63zM370 249q0 21 -8 39l-109 -119
q14 -7 34 -7q35 0 59 25.5t24 61.5z" />
    <glyph glyph-name="ugrave" unicode="&#xf9;" horiz-adv-x="616" 
d="M269 230q0 -45 18.5 -63t40.5 -18q8 0 16 2.5t18 10t16 25.5t6 43v161q0 62 -4 102h196q-4 -40 -4 -102v-272q0 -76 16 -110h-183q-13 22 -14 56q-28 -38 -60.5 -51.5t-78.5 -13.5q-79 0 -125 53.5t-46 152.5v180h-53q20 44 36 107h210q-5 -50 -5 -102v-161zM278 727
l128 -173h-161l-157 173h190z" />
    <glyph glyph-name="uacute" unicode="&#xfa;" horiz-adv-x="616" 
d="M269 230q0 -45 18.5 -63t40.5 -18q8 0 16 2.5t18 10t16 25.5t6 43v161q0 62 -4 102h196q-4 -40 -4 -102v-272q0 -76 16 -110h-183q-13 22 -14 56q-28 -38 -60.5 -51.5t-78.5 -13.5q-79 0 -125 53.5t-46 152.5v180h-53q20 44 36 107h210q-5 -50 -5 -102v-161zM251 554
l128 173h189l-157 -173h-160z" />
    <glyph glyph-name="ucircumflex" unicode="&#xfb;" horiz-adv-x="616" 
d="M269 230q0 -45 18.5 -63t40.5 -18q8 0 16 2.5t18 10t16 25.5t6 43v161q0 62 -4 102h196q-4 -40 -4 -102v-272q0 -76 16 -110h-183q-13 22 -14 56q-28 -38 -60.5 -51.5t-78.5 -13.5q-79 0 -125 53.5t-46 152.5v180h-53q20 44 36 107h210q-5 -50 -5 -102v-161zM324 601
l-35 -51h-138l155 187h39l158 -187h-145z" />
    <glyph glyph-name="udieresis" unicode="&#xfc;" horiz-adv-x="616" 
d="M269 230q0 -45 18.5 -63t40.5 -18q8 0 16 2.5t18 10t16 25.5t6 43v161q0 62 -4 102h196q-4 -40 -4 -102v-272q0 -76 16 -110h-183q-13 22 -14 56q-28 -38 -60.5 -51.5t-78.5 -13.5q-79 0 -125 53.5t-46 152.5v180h-53q20 44 36 107h210q-5 -50 -5 -102v-161zM118 640.5
q0 37.5 26.5 64t62.5 26.5q38 0 64 -26.5t26 -64t-26 -63.5t-64 -26q-36 0 -62.5 26t-26.5 63.5zM357 640.5q0 37.5 27 64t64 26.5t63 -26.5t26 -64t-26 -63.5t-63 -26q-38 0 -64.5 26t-26.5 63.5z" />
    <glyph glyph-name="florin" unicode="&#x192;" horiz-adv-x="521" 
d="M128 404h100l6 46q4 32 11.5 60.5t22 57.5t35 49.5t52 33.5t70.5 13q45 -1 68 -15l-16 -64q-25 10 -52 10q-48 0 -73.5 -39t-32.5 -100l-6 -52h120v-64h-128l-24 -205q-13 -106 -52.5 -162t-122.5 -56q-47 0 -78 16l16 63q24 -11 56 -11q45 0 66.5 38t30.5 120l24 197
h-93v64z" />
    <glyph glyph-name="perthousand" unicode="&#x2030;" horiz-adv-x="1200" 
d="M202 707q34 0 66 -14q32 -13 54 -36q22 -24 36 -54q13 -32 13 -66q0 -74 -50.5 -126.5t-123 -52.5t-120.5 50q-49 50 -49 122q0 74 49.5 125.5t123.5 51.5h1zM727 700l-526 -693h-115l526 693h115zM250 587.5q-20 21.5 -49 21.5h-1q-31 0 -52 -22t-21 -53
q0 -32 21.5 -55.5t51.5 -23.5q29 0 49.5 24t20.5 56q0 31 -20 52.5zM493 296q50 51 122 51h1q47 0 85.5 -23t61.5 -61t23 -84q0 -48 -23.5 -89.5t-63 -65t-86.5 -23.5q-71 0 -120.5 50t-49.5 121q0 73 50 124zM642.5 244.5q-12.5 5.5 -26.5 5.5h-1q-30 0 -50.5 -21.5
t-20.5 -53.5t21 -54.5t49 -22.5q29 0 50 23t21 56q0 15 -5.5 28.5t-15 23.5t-22 15.5zM879 296q50 51 122 51h1q72 0 121 -49t49 -119q0 -73 -50 -125.5t-123 -52.5q-71 0 -120.5 50t-49.5 121q0 73 50 124zM1050.5 229q-20.5 21 -49.5 21h-1q-29 0 -49.5 -21.5t-20.5 -53.5
t21 -54.5t49 -22.5q29 0 50 23t21 56q0 31 -20.5 52z" />
    <glyph glyph-name="Euro" unicode="&#x20ac;" horiz-adv-x="543" 
d="M498 96l17 -63q-62 -43 -149 -43q-127 0 -204 90q-58 64 -72 172h-62v49h57v15q0 17 2 45h-59v51h66q18 103 82 169q81 83 199 83q73 0 133 -32l-20 -66q-46 28 -112 28q-80 0 -132 -55q-45 -43 -61 -127h280v-51h-289q-2 -26 -2 -42v-18h291v-49h-284q12 -83 56 -131
q55 -58 141 -58q64 0 122 33z" />
    <glyph glyph-name="trademark" unicode="&#x2122;" horiz-adv-x="636" 
d="M28 723q14 -1 51 -1h136q36 0 50 1v-77q-14 1 -50 1h-25v-98q0 -50 2 -64h-88q2 26 2 64v98h-27q-38 0 -51 -1v77zM579 727l20 -181q7 -52 9 -61h-87q0 20 -4 48l-8 66l-56 -118h-21l-56 119l-9 -72q-3 -17 -3 -43h-79q1 5 2 15t3 24t3 22l22 181h57l76 -151l73 151h58z
" />
    </font>
</defs>
</svg>
